# xmcd CD database file
#
# Track frame offsets:
#	150
#	14831
#	36877
#	58304
#	74774
#	93592
#	114987
#	140118
#	158715
#
# Disc length: 2326 seconds
#
# Revision: 0
# Processed by: cddbd v1.5.1PL0 Copyright (c) Steve Scherf et al.
# Submitted via: CDex 1.50
#
DISCID=89091409
DTITLE=El Merekumbe - Pa Que Lo baila Usted
DYEAR=2005
DGENRE=Salsa
TTITLE0=Maria En La Playa
TTITLE1=Quizas, Quizas
TTITLE2=Parampampam
TTITLE3=Merengue del Ki
TTITLE4=Sin Chicha ni Limona
TTITLE5=Son de mi Cuba
TTITLE6=Lagrimas Negras
TTITLE7=La Pachanga
TTITLE8=No se de mi
EXTD=YEAR: 2005
EXTT0=
EXTT1=
EXTT2=
EXTT3=
EXTT4=
EXTT5=
EXTT6=
EXTT7=
EXTT8=
PLAYORDER=
